<?xml version="1.0" encoding="UTF-8"?>
<!DOCTYPE svg PUBLIC "-//W3C//DTD SVG 1.1//EN" "http://www.w3.org/Graphics/SVG/1.1/DTD/svg11.dtd">
<!-- Creator: CorelDRAW X6 -->
<svg xmlns="http://www.w3.org/2000/svg" xml:space="preserve" width="232.48mm" height="63.8489mm" version="1.1" style="shape-rendering:geometricPrecision; text-rendering:geometricPrecision; image-rendering:optimizeQuality; fill-rule:evenodd; clip-rule:evenodd"
viewBox="0 0 87318 23981"
 xmlns:xlink="http://www.w3.org/1999/xlink">
 <defs>
  <style type="text/css">
   <![CDATA[
    .fil0 {fill:#F2C96E;fill-rule:nonzero}
   ]]>
  </style>
 </defs>
 <g id="Warstwa_x0020_1">
  <metadata id="CorelCorpID_0Corel-Layer"/>
  <path class="fil0" d="M12433 0c3140,112 5972,1431 8047,3506 2171,2171 3514,5170 3514,8483 0,3313 -1343,6312 -3514,8483 -2092,2092 -4952,3414 -8121,3509 -115,3 -200,-65 -200,-185l0 -750 3 0 0 -2684 0 -258c0,-246 140,-370 420,-370 280,0 420,123 420,370l0 621 0 2269c21,-2 128,-4 149,-6 2593,-269 4919,-1433 6665,-3179 2001,-2001 3239,-4766 3239,-7819 0,-3054 -1238,-5818 -3239,-7819 -1777,-1777 -4157,-2952 -6807,-3193l0 2857 -10 0 0 174c0,246 -140,370 -420,370 -280,0 -420,-123 -420,-370l0 -3075 0 0 0 -604 0 -10 0 -15 1 1c14,-128 138,-310 272,-305zm570 13983l0 -3513c0,-246 -140,-370 -420,-370 -280,0 -420,123 -420,370l0 3703 7 -8 0 3610c0,90 39,171 118,244 78,73 174,109 286,109l2973 0c1019,0 1839,-283 2461,-848 621,-565 932,-1458 932,-2679l0 -5224c0,-1220 -311,-2113 -932,-2679 -621,-565 -1442,-848 -2461,-848l-2880 0 -93 0c-112,0 -207,36 -286,109 -48,45 -279,489 -327,579l-3090 6013 -3074 -6013c-246,-459 -481,-689 -705,-689 -280,0 -420,134 -420,403l0 11505c0,246 140,370 420,370 280,0 420,-123 420,-370l0 -10010 2973 5727c112,235 241,353 386,353 123,0 252,-118 386,-353l2914 -5565 0 0 76 -145 585 -1117 255 4 286 4 2174 0c817,0 1447,227 1890,680 442,453 663,1134 663,2041l0 5224c0,907 -221,1587 -663,2041 -442,453 -1072,680 -1890,680l-2536 0 -7 -3339zm-4538 9474c-1892,-582 -3585,-1620 -4951,-2985 -2171,-2171 -3514,-5170 -3514,-8483 0,-3313 1343,-6312 3514,-8483 1350,-1350 3021,-2380 4888,-2966 254,-80 221,19 221,194 0,196 0,393 0,589 0,22 10,128 -131,175 -1644,549 -3115,1473 -4313,2671 -2001,2001 -3239,4766 -3239,7819 0,3054 1238,5818 3239,7819 1183,1183 2613,2093 4230,2644 202,69 214,63 214,272l0 639c0,62 -98,113 -158,95z"/>
  <path class="fil0" d="M29378 6714l1420 0 658 3484 710 -3484 1368 0 104 5992 -939 0 -111 -3987 -695 3987 -836 0 -740 -4017 -89 4017 -954 0 104 -5992zm6310 0l1509 0 1117 5992 -1220 0 -200 -1265 -880 0 -207 1265 -1250 0 1132 -5992zm1080 3935l-318 -2337 -318 2337 636 0zm2493 -3935l1650 0c656,0 1151,116 1487,348 335,232 503,643 503,1235 0,399 -52,717 -155,954 -104,237 -296,422 -577,555l821 2900 -1368 0 -658 -2685 -377 0 0 2685 -1324 0 0 -5992zm1694 2545c266,0 452,-70 559,-211 106,-141 159,-351 159,-632 0,-271 -49,-475 -148,-610 -99,-136 -269,-203 -510,-203l-429 0 0 1657 370 0zm3085 -2545l2692 0 0 902 -1368 0 0 1487 1043 0 0 917 -1043 0 0 1790 1383 0 0 895 -2707 0 0 -5992zm3647 0l1324 0 0 2448 1006 -2448 1294 0 -1110 2707 1161 3284 -1346 0 -865 -2648 -141 237 0 2411 -1324 0 0 -5992zm6088 0l1516 0c518,0 922,64 1213,192 291,128 497,329 618,603 121,274 181,640 181,1098l0 2175c0,464 -60,833 -181,1110 -121,276 -325,481 -614,614 -288,133 -689,200 -1202,200l-1531 0 0 -5992zm1531 5074c192,0 334,-28 425,-85 91,-57 149,-138 174,-244 25,-106 37,-263 37,-470l0 -2611c0,-192 -14,-339 -41,-440 -27,-101 -86,-176 -178,-226 -91,-49 -233,-74 -425,-74l-200 0 0 4150 207 0zm2856 118l1465 -4298 -1398 0 0 -895 2700 0 0 747 -1487 4349 1502 0 0 895 -2781 0 0 -799zm3529 -5193l1124 0 355 3491 451 -3484 880 0 473 3462 362 -3469 1110 0 -717 5992 -1154 0 -510 -3617 -481 3617 -1169 0 -725 -5992zm7442 6080c-646,0 -1107,-166 -1383,-499 -276,-333 -414,-825 -414,-1476l0 -2226c0,-651 138,-1140 414,-1468 276,-328 737,-492 1383,-492 651,0 1116,165 1394,496 279,330 418,819 418,1465l0 2226c0,651 -139,1143 -418,1476 -279,333 -743,499 -1394,499zm0 -939c187,0 311,-63 370,-189 59,-126 89,-297 89,-514l0 -2885c0,-222 -30,-394 -89,-518 -59,-123 -182,-185 -370,-185 -178,0 -296,63 -355,189 -59,126 -89,297 -89,514l0 2885c0,217 27,388 81,514 54,126 175,189 362,189zm2959 -5141l932 0 1228 2885 0 -2885 1095 0 0 5992 -895 0 -1228 -3107 0 3107 -1132 0 0 -5992zm4491 0l932 0 1228 2885 0 -2885 1095 0 0 5992 -895 0 -1228 -3107 0 3107 -1132 0 0 -5992zm4498 0l1324 0 0 5992 -1324 0 0 -5992zm2560 0l1324 0 0 2448 1006 -2448 1294 0 -1110 2707 1161 3284 -1346 0 -865 -2648 -141 237 0 2411 -1324 0 0 -5992z"/>
  <path class="fil0" d="M28995 15989l446 0 304 2157 390 -2157 415 0 390 2147 304 -2147 446 0 -486 2927 -456 0 -400 -2066 -395 2066 -486 0 -471 -2927zm4128 2967c-226,0 -402,-43 -527,-129 -125,-86 -213,-213 -263,-382 -51,-169 -76,-388 -76,-658l0 -668c0,-405 63,-701 190,-889 127,-187 352,-281 676,-281 236,0 414,49 534,147 120,98 199,235 238,413 39,177 58,416 58,717l0 238 -1155 0 0 587c0,179 26,308 78,387 52,79 136,119 251,119 115,0 192,-40 233,-119 41,-79 61,-200 61,-362l0 -177 527 0 0 111c0,307 -66,542 -197,704 -132,162 -341,243 -628,243zm299 -1788l0 -263c0,-199 -19,-342 -58,-428 -39,-86 -121,-129 -246,-129 -88,0 -154,20 -200,61 -46,40 -77,107 -94,200 -17,93 -25,227 -25,403l0 157 623 0zm2280 1788c-176,0 -341,-84 -496,-253l0 213 -542 0 0 -4102 542 0 0 1408c159,-182 343,-273 552,-273 267,0 445,114 534,342 89,228 134,480 134,757l0 709c0,800 -241,1200 -724,1200zm-111 -425c125,0 205,-63 240,-190 35,-127 53,-322 53,-585l0 -709c0,-216 -20,-382 -61,-499 -41,-116 -125,-175 -253,-175 -118,0 -240,49 -365,147l0 1879c111,88 240,132 385,132zm3165 425c-253,0 -439,-92 -557,-276 -118,-184 -177,-489 -177,-914l0 -567c0,-388 51,-694 154,-917 103,-223 291,-334 565,-334 172,0 334,76 486,228l0 -1362 542 0 0 4102 -542 0 0 -187c-142,152 -299,228 -471,228zm137 -425c108,0 219,-37 334,-111l0 -1919c-125,-84 -240,-127 -344,-127 -213,0 -319,204 -319,613l0 825c0,236 22,415 66,537 44,122 132,182 263,182zm2442 425c-226,0 -402,-43 -527,-129 -125,-86 -213,-213 -263,-382 -51,-169 -76,-388 -76,-658l0 -668c0,-405 63,-701 190,-889 127,-187 352,-281 676,-281 236,0 414,49 534,147 120,98 199,235 238,413 39,177 58,416 58,717l0 238 -1155 0 0 587c0,179 26,308 78,387 52,79 136,119 251,119 115,0 192,-40 233,-119 41,-79 61,-200 61,-362l0 -177 527 0 0 111c0,307 -66,542 -197,704 -132,162 -341,243 -628,243zm299 -1788l0 -263c0,-199 -19,-342 -58,-428 -39,-86 -121,-129 -246,-129 -88,0 -154,20 -200,61 -46,40 -77,107 -94,200 -17,93 -25,227 -25,403l0 157 623 0zm1034 -1180l547 0 360 2355 365 -2355 527 0 -557 2927 -663 0 -577 -2927zm3166 2967c-226,0 -402,-43 -527,-129 -125,-86 -213,-213 -263,-382 -51,-169 -76,-388 -76,-658l0 -668c0,-405 63,-701 190,-889 127,-187 352,-281 676,-281 236,0 414,49 534,147 120,98 199,235 238,413 39,177 58,416 58,717l0 238 -1155 0 0 587c0,179 26,308 78,387 52,79 136,119 251,119 115,0 192,-40 233,-119 41,-79 61,-200 61,-362l0 -177 527 0 0 111c0,307 -66,542 -197,704 -132,162 -341,243 -628,243zm299 -1788l0 -263c0,-199 -19,-342 -58,-428 -39,-86 -121,-129 -246,-129 -88,0 -154,20 -200,61 -46,40 -77,107 -94,200 -17,93 -25,227 -25,403l0 157 623 0zm1282 -2355l542 0 0 4102 -542 0 0 -4102zm2123 4142c-311,0 -531,-92 -661,-276 -130,-184 -195,-452 -195,-803l0 -851c0,-351 65,-619 195,-803 130,-184 350,-276 661,-276 307,0 526,92 656,276 130,184 195,452 195,803l0 851c0,351 -65,619 -195,803 -130,184 -349,276 -656,276zm0 -400c98,0 169,-29 213,-86 44,-57 71,-128 81,-213 10,-84 15,-199 15,-344l0 -917c0,-145 -5,-261 -15,-347 -10,-86 -37,-158 -81,-215 -44,-57 -115,-86 -213,-86 -98,0 -170,29 -215,86 -46,57 -73,129 -84,215 -10,86 -15,202 -15,347l0 917c0,145 5,260 15,344 10,84 38,155 84,213 46,57 117,86 215,86zm1556 -2567l542 0 0 233c159,-182 344,-273 557,-273 267,0 445,114 534,342 89,228 134,480 134,757l0 709c0,358 -55,647 -165,868 -110,221 -298,332 -565,332 -172,0 -338,-86 -496,-258l0 1180 -542 0 0 -3889zm932 2542c125,0 205,-63 241,-190 35,-127 53,-322 53,-585l0 -709c0,-216 -20,-382 -61,-499 -40,-116 -125,-175 -253,-175 -125,0 -248,51 -370,152l0 1874c118,88 248,132 390,132zm2346 425c-226,0 -402,-43 -527,-129 -125,-86 -213,-213 -263,-382 -51,-169 -76,-388 -76,-658l0 -668c0,-405 63,-701 190,-889 127,-187 352,-281 676,-281 236,0 414,49 534,147 120,98 199,235 238,413 39,177 58,416 58,717l0 238 -1155 0 0 587c0,179 26,308 78,387 52,79 136,119 251,119 115,0 192,-40 233,-119 41,-79 61,-200 61,-362l0 -177 527 0 0 111c0,307 -66,542 -197,704 -132,162 -341,243 -628,243zm299 -1788l0 -263c0,-199 -19,-342 -58,-428 -39,-86 -121,-129 -246,-129 -88,0 -154,20 -200,61 -46,40 -77,107 -94,200 -17,93 -25,227 -25,403l0 157 623 0zm1247 -1180l542 0 0 415c101,-165 205,-282 311,-349 106,-67 219,-101 337,-101 30,0 59,2 86,5l0 597c-108,-40 -208,-61 -299,-61 -88,0 -166,21 -235,63 -69,42 -136,116 -200,220l0 2137 -542 0 0 -2927z"/>
 </g>
</svg>
